EMG
version=1
nRows=31
nColumns=17
inDegrees=no
endheader
time	_right_gast_med	_right_glut_max	_left_gast_med	_left_glut_max	_right_glut_med	_right_bic_fem	_right_rect_fem	_right_vast_lat	_right_vast_med	_right_tens_fasc_lat	_left_glut_med	_left_bic_fem	_left_rect_fem	_left_vast_lat	_left_vast_med	_left_tens_fasc_lat
      0.44000000	     -1.20038533	     -0.04734138	      0.01595002	      0.04803037	      0.00372762	      0.01303429	      0.00417948	      0.00637189	      0.00317696	     -0.01858687	      0.01655204	      0.02512764	      0.00817560	      0.00027090	      0.00181219	     -0.00967809
      0.45000000	     -0.73133862	      0.01203553	      0.01299300	      0.03845192	      0.00332732	      0.01095794	      0.00789109	      0.01428588	      0.00507322	     -0.01262191	      0.01115390	      0.01311974	      0.01774186	      0.00140546	      0.00015995	     -0.00257005
      0.46000000	     -0.24000289	      0.01910437	      0.01479991	      0.03333861	      0.01678975	      0.00990727	      0.01732275	      0.01766479	      0.00787071	      0.00208749	     -0.00257161	     -0.01909299	      0.01784684	     -0.00607557	      0.00334029	      0.00592563
      0.47000000	     -0.09635421	      0.05351843	      0.01228376	      0.02570820	      0.03445649	      0.01103820	      0.02555459	      0.03270598	      0.01162465	      0.01541252	     -0.00971661	     -0.02528511	      0.01179188	     -0.00414743	      0.02020354	      0.01448627
      0.48000000	     -0.12716541	      0.16803949	      0.00694157	      0.01549701	      0.02449099	      0.00891984	      0.02346270	      0.04697059	     -0.00703146	      0.02319809	     -0.00618260	     -0.03981812	      0.01500512	      0.00147864	      0.02459617	      0.01762099
      0.49000000	     -0.09242152	      0.20499371	      0.00003501	      0.00243804	      0.01433701	      0.01290391	      0.01171375	      0.04778111	     -0.07320567	      0.01894950	     -0.00077081	     -0.04521770	      0.02068491	      0.01314871	      0.01824525	      0.02438883
      0.50000000	     -0.01916384	      0.13338867	     -0.00158116	     -0.01356187	      0.02288620	      0.01962196	      0.00374019	      0.05593021	     -0.11494341	      0.00847802	      0.00325383	     -0.01216245	      0.01190932	      0.02525143	      0.01675670	      0.03442518
      0.51000000	     -0.02411119	      0.06264257	      0.00368357	     -0.02325540	      0.02554890	      0.01708020	      0.00103900	      0.05236184	     -0.05431647	      0.00867053	      0.00553300	      0.02302440	      0.00439287	      0.03244124	      0.01133159	      0.03042039
      0.52000000	      0.02228665	      0.02837508	      0.00833081	     -0.02949548	      0.01084474	      0.02234283	      0.00815354	      0.01429406	      0.05179757	      0.00999145	      0.00587047	      0.03937034	      0.01359052	      0.02416180	      0.00658742	      0.02097336
      0.53000000	      0.08026976	      0.01762289	      0.01178092	     -0.03280497	     -0.01052000	      0.03078631	      0.01822697	     -0.01978336	      0.12690526	      0.00547332	      0.00058505	      0.03268240	      0.01410205	      0.01192253	     -0.01573851	      0.01094360
      0.54000000	      0.05546499	      0.02652618	      0.01502505	     -0.02220842	     -0.01725498	      0.03096673	      0.01687940	     -0.03355170	      0.13005689	     -0.00257578	     -0.00499853	      0.00762498	      0.01159300	      0.01517162	     -0.02993983	      0.00633068
      0.55000000	     -0.05411553	      0.03369656	      0.01235883	     -0.00728648	     -0.00915827	      0.00234997	      0.00580665	     -0.02926403	      0.08896482	     -0.00959949	     -0.00621340	     -0.00612746	      0.00679808	      0.00845642	     -0.02801110	      0.00530930
      0.56000000	      0.18258201	      0.01342036	      0.00346420	      0.00462243	     -0.00606797	     -0.03103994	      0.00339331	     -0.01828505	      0.01947054	     -0.01845462	     -0.00451809	      0.00130993	      0.00188239	     -0.01242953	     -0.01591995	      0.00771054
      0.57000000	     -0.12959754	     -0.01160195	     -0.00610860	      0.01644072	     -0.00714858	     -0.01057494	      0.00808494	     -0.00088745	     -0.08329116	     -0.01618531	     -0.00170004	      0.00145169	      0.01915423	     -0.01616935	     -0.01638800	      0.02237139
      0.58000000	     -1.41785109	     -0.02663727	      0.00277659	      0.01694270	     -0.00368858	      0.01734959	      0.01206089	      0.01003939	     -0.13154171	     -0.00222457	      0.00162654	      0.00367185	      0.03016011	     -0.01615003	     -0.02842949	      0.03078286
      0.59000000	     -0.14467202	     -0.03767695	      0.01936773	      0.00867355	      0.00106933	      0.01735356	      0.01345478	     -0.00199380	     -0.11870719	      0.00970070	      0.00453443	     -0.00054352	      0.01311973	     -0.00565229	     -0.06235131	      0.01867997
      0.60000000	      1.94339907	     -0.04253625	      0.01921127	     -0.00617140	      0.01164724	      0.00863006	      0.01559664	     -0.01459747	     -0.06807189	      0.01420838	      0.00805237	      0.00580731	     -0.00503033	      0.02108689	     -0.09747802	      0.00207152
      0.61000000	      2.16409230	     -0.03158919	      0.01168634	     -0.01479388	      0.03359809	      0.00406590	      0.00982317	     -0.00983930	      0.00763532	      0.01529461	      0.01081757	      0.02939560	     -0.00774927	      0.05048843	     -0.06763199	     -0.00840027
      0.62000000	      0.09368362	     -0.00943936	      0.00765229	     -0.00905783	      0.04606823	      0.00903643	     -0.00113566	     -0.00034648	      0.06712258	      0.01708529	      0.00991195	      0.03684992	     -0.00418120	      0.05295684	      0.04921952	     -0.01630279
      0.63000000	     -1.96431363	      0.01702280	      0.00697161	     -0.00272786	      0.04010303	      0.01164434	     -0.00167182	      0.00538558	      0.08364076	      0.02002902	      0.00691736	     -0.00037568	     -0.00097001	      0.02446230	      0.14381707	     -0.02632331
      0.64000000	     -1.47643650	      0.01764397	      0.00956052	      0.00207395	      0.03746507	      0.00420561	      0.00600804	      0.01206517	      0.06627514	      0.01043405	      0.01167949	     -0.00412369	     -0.00514589	      0.02000500	      0.14287500	     -0.03410053
      0.65000000	      0.58994162	     -0.01635340	      0.01455742	      0.00375088	      0.03769920	      0.00290199	      0.00547321	      0.01201977	      0.04800067	      0.00329775	      0.02639866	      0.02884059	     -0.00055727	      0.03376880	      0.12604691	     -0.04080785
      0.66000000	      1.04350913	     -0.02975931	      0.01082226	     -0.00347603	      0.02810336	      0.01090238	     -0.00145707	      0.00774544	      0.03370005	      0.01317040	      0.02191868	      0.04424241	      0.00732913	      0.02488198	      0.10202613	     -0.03077321
      0.67000000	     -0.80538249	     -0.01521447	     -0.00648926	     -0.01699219	      0.01877021	      0.01062662	     -0.00913432	      0.00847847	      0.02310414	      0.02470679	      0.00863413	      0.00913111	     -0.01249381	      0.01511181	      0.01705007	      0.00740222
      0.68000000	     -1.19503188	     -0.00671436	     -0.01748536	     -0.00075744	      0.02038286	      0.00771906	     -0.00609097	      0.00899214	      0.02318473	      0.01542950	     -0.00189776	     -0.02729817	      0.00253171	      0.01331415	     -0.02910649	      0.02562128
      0.69000000	      0.74753410	     -0.00104157	      0.00504036	      0.03294586	      0.01956772	      0.01210901	      0.01022930	      0.00025445	      0.03230051	     -0.00383290	      0.00267152	     -0.03661546	      0.05759087	     -0.01638398	      0.05140442	      0.02362751
      0.70000000	      0.09937716	      0.00841263	      0.02296520	      0.04047235	      0.01716534	      0.01273767	      0.01581940	     -0.00702418	      0.03432467	     -0.00538035	      0.03196722	     -0.02158547	      0.02729336	     -0.02933722	      0.11025716	      0.01853739
      0.71000000	     -0.73354119	      0.01303375	      0.01646473	      0.02855973	      0.01840783	      0.01329876	      0.01548493	      0.00381858	      0.02857024	     -0.00444383	      0.04984115	     -0.00226345	     -0.00788773	      0.00362256	      0.05483517	     -0.00340658
      0.72000000	      0.12075107	      0.01720116	      0.01151923	      0.00440413	      0.01883363	      0.01587145	      0.00923185	      0.01630860	      0.02223415	     -0.00816211	      0.05565494	      0.00759694	      0.00678435	     -0.00688520	     -0.01744821	      0.00123353
      0.73000000	      0.43041620	      0.03151421	      0.01545926	     -0.01764986	      0.01521988	      0.00891532	     -0.00219814	      0.03082633	      0.01887078	      0.00475410	      0.04772970	     -0.02945707	      0.01698712	     -0.01898452	     -0.08889485	      0.02487312
      0.74000000	      0.36232430	      0.03301496	      0.03247743	     -0.01707593	      0.00877917	     -0.00320375	     -0.00591052	      0.03034228	      0.01909824	      0.01683402	      0.03258152	     -0.04074214	     -0.00101822	      0.00373483	     -0.10480552	      0.02439931
